<?xml version="1.0" encoding="UTF-8" standalone="no"?>
<!DOCTYPE svg PUBLIC "-//W3C//DTD SVG 1.1//EN" "http://www.w3.org/Graphics/SVG/1.1/DTD/svg11.dtd">
<svg version="1.1" xmlns="http://www.w3.org/2000/svg" xmlns:dc="http://purl.org/dc/elements/1.1/" xmlns:xl="http://www.w3.org/1999/xlink" viewBox="0 0 768 768" width="768" height="768">
<defs/>
<g id="Canvas_1" fill-opacity="1" stroke="none" stroke-opacity="1" fill="none" stroke-dasharray="none">
<title>Canvas 1</title>
<g id="Canvas_1: Layer 1">
<title>Layer 1</title>
<g id="Group_2">
<title>Canvas_1</title>
<g id="Group_3">
<title>Canvas_1: Layer 1</title>
<g id="Group_4">
<title>Group_2</title>
<g id="Group_5">
<title>Graphic_3</title>
<g id="Graphic_6">
<path d="M 159.1733 541.5143 C 161.38252 539.1493 164.07541 537.2593 167.07804 535.9657 C 170.08067 534.6714 173.32844 534.00214 176.61217 534 L 714.6924 534.4286 C 716.9838 534.43286 719.2246 535.085 721.14316 536.3057 C 723.061 537.5257 724.5737 539.26214 725.497 541.30286 C 726.4203 543.3436 726.7146 545.6014 726.3447 547.80214 C 725.9748 550.00286 724.9561 552.05214 723.4118 553.7 L 608.8261 676.4857 C 606.6154 678.85214 603.92105 680.7436 600.9155 682.03714 C 597.9099 683.3314 594.6592 684 591.37255 684 L 53.307366 683.5714 C 51.015945 683.56714 48.775094 682.915 46.857185 681.6943 C 44.9392 680.4743 43.42666 678.7386 42.503265 676.69714 C 41.579798 674.6564 41.28526 672.3986 41.65532 670.19786 C 42.025384 667.99714 43.044193 665.94786 44.58793 664.3 Z M 723.4118 439.3 C 724.9561 440.94786 725.9748 442.99714 726.3447 445.19786 C 726.7146 447.39857 726.4203 449.65643 725.497 451.69714 C 724.5737 453.73857 723.061 455.4743 721.14316 456.6943 C 719.2246 457.915 716.9838 458.56714 714.6924 458.57143 L 176.62685 459 C 173.34091 459 170.0902 458.33143 167.08464 457.03714 C 164.07908 455.74357 161.38472 453.85214 159.1733 451.4857 L 44.58793 328.62857 C 43.044193 326.9807 42.025384 324.93143 41.65532 322.7307 C 41.28526 320.53 41.579798 318.27214 42.503265 316.23143 C 43.42666 314.19 44.9392 312.4543 46.857185 311.2343 C 48.775094 310.01357 51.015945 309.36143 53.307366 309.35714 L 591.3872 308.92857 C 594.6717 308.9307 597.9195 309.6 600.9221 310.8943 C 603.9247 312.18786 606.6176 314.07786 608.8261 316.44286 Z M 159.1733 91.51429 C 161.38252 89.1494 164.07541 87.25949 167.07804 85.96554 C 170.08067 84.67159 173.32844 84.00213 176.61217 84 L 714.6924 84.42857 C 716.9838 84.43311 719.2246 85.08512 721.14316 86.30541 C 723.061 87.52571 724.5737 89.26176 725.497 91.30271 C 726.4203 93.34364 726.7146 95.60164 726.3447 97.80243 C 725.9748 100.00314 724.9561 102.052 723.4118 103.7 L 608.8261 226.48571 C 606.6154 228.85214 603.92105 230.74357 600.9155 232.03714 C 597.9099 233.33143 594.6592 234 591.37255 234 L 53.307366 233.57143 C 51.015945 233.56714 48.775094 232.915 46.857185 231.69429 C 44.9392 230.47429 43.42666 228.73857 42.503265 226.69714 C 41.579798 224.65643 41.28526 222.39857 41.65532 220.19786 C 42.025384 217.99714 43.044193 215.94786 44.58793 214.3 Z" fill="#2d2d2d"/>
</g>
</g>
</g>
</g>
</g>
</g>
</g>
</svg>
